<?xml version="1.0" encoding="UTF-8" standalone="no"?>
<!-- Created with Inkscape (http://www.inkscape.org/) -->

<svg
   xmlns:dc="http://purl.org/dc/elements/1.1/"
   xmlns:cc="http://creativecommons.org/ns#"
   xmlns:rdf="http://www.w3.org/1999/02/22-rdf-syntax-ns#"
   xmlns:svg="http://www.w3.org/2000/svg"
   xmlns="http://www.w3.org/2000/svg"
   xmlns:sodipodi="http://sodipodi.sourceforge.net/DTD/sodipodi-0.dtd"
   xmlns:inkscape="http://www.inkscape.org/namespaces/inkscape"
   width="150"
   height="150"
   viewBox="0 0 39.6875 39.6875"
   version="1.1"
   id="svg8"
   inkscape:version="0.92.0 r15299"
   sodipodi:docname="tile_reservation-lasts.svg">
  <defs
     id="defs2" />
  <sodipodi:namedview
     id="base"
     pagecolor="#ffffff"
     bordercolor="#666666"
     borderopacity="1.0"
     inkscape:pageopacity="0.0"
     inkscape:pageshadow="2"
     inkscape:zoom="1.4"
     inkscape:cx="70.493837"
     inkscape:cy="58.482722"
     inkscape:document-units="mm"
     inkscape:current-layer="layer1"
     showgrid="false"
     units="px"
     inkscape:window-width="1366"
     inkscape:window-height="715"
     inkscape:window-x="1920"
     inkscape:window-y="312"
     inkscape:window-maximized="1" />
  <metadata
     id="metadata5">
    <rdf:RDF>
      <cc:Work
         rdf:about="">
        <dc:format>image/svg+xml</dc:format>
        <dc:type
           rdf:resource="http://purl.org/dc/dcmitype/StillImage" />
        <dc:title></dc:title>
      </cc:Work>
    </rdf:RDF>
  </metadata>
  <g
     inkscape:label="Calque 1"
     inkscape:groupmode="layer"
     id="layer1"
     transform="translate(0,-257.3125)">
    <g
       id="g4"
       transform="matrix(0.01906754,0,0,-0.01906754,2.7592342,287.40479)"
       style="fill:#2c3e50;fill-opacity:1">
      <path
         style="fill:#2c3e50;fill-opacity:1"
         inkscape:connector-curvature="0"
         id="path6"
         d="M 256,224 V 32 Q 256,19 246.5,9.5 237,0 224,0 H 32 Q 19,0 9.5,9.5 0,19 0,32 V 224 Q 0,237 9.5,246.5 19,256 32,256 h 192 q 13,0 22.5,-9.5 Q 256,237 256,224 Z m 0,384 V 416 q 0,-13 -9.5,-22.5 Q 237,384 224,384 H 32 Q 19,384 9.5,393.5 0,403 0,416 V 608 Q 0,621 9.5,630.5 19,640 32,640 h 192 q 13,0 22.5,-9.5 Q 256,621 256,608 Z m 0,384 V 800 q 0,-13 -9.5,-22.5 Q 237,768 224,768 H 32 Q 19,768 9.5,777.5 0,787 0,800 v 192 q 0,13 9.5,22.5 9.5,9.5 22.5,9.5 h 192 q 13,0 22.5,-9.5 Q 256,1005 256,992 Z M 1792,224 V 32 Q 1792,19 1782.5,9.5 1773,0 1760,0 H 416 Q 403,0 393.5,9.5 384,19 384,32 v 192 q 0,13 9.5,22.5 9.5,9.5 22.5,9.5 h 1344 q 13,0 22.5,-9.5 9.5,-9.5 9.5,-22.5 z M 256,1376 v -192 q 0,-13 -9.5,-22.5 Q 237,1152 224,1152 H 32 q -13,0 -22.5,9.5 Q 0,1171 0,1184 v 192 q 0,13 9.5,22.5 9.5,9.5 22.5,9.5 h 192 q 13,0 22.5,-9.5 9.5,-9.5 9.5,-22.5 z M 1792,608 V 416 q 0,-13 -9.5,-22.5 Q 1773,384 1760,384 H 416 q -13,0 -22.5,9.5 Q 384,403 384,416 v 192 q 0,13 9.5,22.5 9.5,9.5 22.5,9.5 h 1344 q 13,0 22.5,-9.5 9.5,-9.5 9.5,-22.5 z m 0,384 V 800 q 0,-13 -9.5,-22.5 Q 1773,768 1760,768 H 416 q -13,0 -22.5,9.5 Q 384,787 384,800 v 192 q 0,13 9.5,22.5 9.5,9.5 22.5,9.5 h 1344 q 13,0 22.5,-9.5 9.5,-9.5 9.5,-22.5 z m 0,384 v -192 q 0,-13 -9.5,-22.5 -9.5,-9.5 -22.5,-9.5 H 416 q -13,0 -22.5,9.5 -9.5,9.5 -9.5,22.5 v 192 q 0,13 9.5,22.5 9.5,9.5 22.5,9.5 h 1344 q 13,0 22.5,-9.5 9.5,-9.5 9.5,-22.5 z" />
    </g>
  </g>
</svg>
