<?xml version="1.0" encoding="UTF-8" standalone="no"?>
<!-- Created with Inkscape (http://www.inkscape.org/) -->

<svg
   xmlns:dc="http://purl.org/dc/elements/1.1/"
   xmlns:cc="http://creativecommons.org/ns#"
   xmlns:rdf="http://www.w3.org/1999/02/22-rdf-syntax-ns#"
   xmlns:svg="http://www.w3.org/2000/svg"
   xmlns="http://www.w3.org/2000/svg"
   xmlns:sodipodi="http://sodipodi.sourceforge.net/DTD/sodipodi-0.dtd"
   xmlns:inkscape="http://www.inkscape.org/namespaces/inkscape"
   width="150"
   height="150"
   viewBox="0 0 39.6875 39.6875"
   version="1.1"
   id="svg8"
   inkscape:version="0.92.0 r15299"
   sodipodi:docname="tile_message-lasts.svg">
  <defs
     id="defs2" />
  <sodipodi:namedview
     id="base"
     pagecolor="#ffffff"
     bordercolor="#666666"
     borderopacity="1.0"
     inkscape:pageopacity="0.0"
     inkscape:pageshadow="2"
     inkscape:zoom="2.8"
     inkscape:cx="26.255769"
     inkscape:cy="82.644038"
     inkscape:document-units="mm"
     inkscape:current-layer="layer1"
     showgrid="false"
     units="px"
     inkscape:window-width="1920"
     inkscape:window-height="1056"
     inkscape:window-x="0"
     inkscape:window-y="0"
     inkscape:window-maximized="1" />
  <metadata
     id="metadata5">
    <rdf:RDF>
      <cc:Work
         rdf:about="">
        <dc:format>image/svg+xml</dc:format>
        <dc:type
           rdf:resource="http://purl.org/dc/dcmitype/StillImage" />
        <dc:title></dc:title>
      </cc:Work>
    </rdf:RDF>
  </metadata>
  <g
     inkscape:label="Calque 1"
     inkscape:groupmode="layer"
     id="layer1"
     transform="translate(0,-257.3125)">
    <ellipse
       style="fill:#ffffff;fill-opacity:1;stroke:#2c3e50;stroke-width:1.50936496;stroke-linecap:round;stroke-linejoin:round;stroke-miterlimit:4;stroke-dasharray:none;stroke-dashoffset:0;stroke-opacity:1"
       id="path4857-8"
       cx="28.377542"
       cy="288.60306"
       rx="7.5610747"
       ry="7.2664781" />
    <g
       id="g4"
       transform="matrix(0.01863092,-0.00236736,-0.00236736,-0.01863092,4.5138069,287.98135)"
       style="fill:#2c3e50;fill-opacity:1">
      <path
         style="fill:#2c3e50;fill-opacity:1"
         inkscape:connector-curvature="0"
         id="path6"
         d="M 1792,826 V 32 q 0,-66 -47,-113 -47,-47 -113,-47 H 160 Q 94,-128 47,-81 0,-34 0,32 V 826 Q 44,777 101,739 463,493 598,394 655,352 690.5,328.5 726,305 785,280.5 844,256 895,256 h 1 1 q 51,0 110,24.5 59,24.5 94.5,48 35.5,23.5 92.5,65.5 170,123 498,345 57,39 100,87 z m 0,294 q 0,-79 -49,-151 -49,-72 -122,-123 -376,-261 -468,-325 -10,-7 -42.5,-30.5 -32.5,-23.5 -54,-38 Q 1035,438 1004.5,420 974,402 947,393 q -27,-9 -50,-9 h -1 -1 q -23,0 -50,9 -27,9 -57.5,27 -30.5,18 -52,32.5 -21.5,14.5 -54,38 Q 649,514 639,521 548,585 377,703.5 206,822 172,846 110,888 55,961.5 0,1035 0,1098 q 0,78 41.5,130 41.5,52 118.5,52 h 1472 q 65,0 112.5,-47 47.5,-47 47.5,-113 z" />
    </g>
    <g
       id="g8707"
       transform="translate(53.29093,12.039948)">
      <ellipse
         ry="7.2664781"
         rx="7.5610747"
         cy="276.56311"
         cx="-24.913387"
         id="path4857-8-6"
         style="fill:#ffffff;fill-opacity:1;stroke:#2c3e50;stroke-width:1.50936496;stroke-linecap:round;stroke-linejoin:round;stroke-miterlimit:4;stroke-dasharray:none;stroke-dashoffset:0;stroke-opacity:1" />
      <path
         inkscape:connector-curvature="0"
         id="path4667"
         d="m -24.913387,273.53625 v 6.05372"
         style="fill:none;fill-rule:evenodd;stroke:#f39c12;stroke-width:1.87165165;stroke-linecap:round;stroke-linejoin:miter;stroke-miterlimit:4;stroke-dasharray:none;stroke-opacity:1" />
      <path
         style="fill:none;fill-rule:evenodd;stroke:#f39c12;stroke-width:1.87165165;stroke-linecap:round;stroke-linejoin:miter;stroke-miterlimit:4;stroke-dasharray:none;stroke-opacity:1"
         d="m -27.940244,276.56311 h 6.053714"
         id="path4671"
         inkscape:connector-curvature="0" />
    </g>
  </g>
</svg>
