<?xml version="1.0" encoding="UTF-8" standalone="no"?>
<!-- Created with Inkscape (http://www.inkscape.org/) -->

<svg
   xmlns:dc="http://purl.org/dc/elements/1.1/"
   xmlns:cc="http://creativecommons.org/ns#"
   xmlns:rdf="http://www.w3.org/1999/02/22-rdf-syntax-ns#"
   xmlns:svg="http://www.w3.org/2000/svg"
   xmlns="http://www.w3.org/2000/svg"
   xmlns:sodipodi="http://sodipodi.sourceforge.net/DTD/sodipodi-0.dtd"
   xmlns:inkscape="http://www.inkscape.org/namespaces/inkscape"
   width="150"
   height="150"
   viewBox="0 0 39.6875 39.6875"
   version="1.1"
   id="svg8"
   inkscape:version="0.92.0 r15299"
   sodipodi:docname="tile_new-reservation.svg">
  <defs
     id="defs2" />
  <sodipodi:namedview
     id="base"
     pagecolor="#ffffff"
     bordercolor="#666666"
     borderopacity="1.0"
     inkscape:pageopacity="0.0"
     inkscape:pageshadow="2"
     inkscape:zoom="1.979899"
     inkscape:cx="74.566856"
     inkscape:cy="22.106706"
     inkscape:document-units="mm"
     inkscape:current-layer="layer1"
     showgrid="false"
     units="px"
     inkscape:window-width="1366"
     inkscape:window-height="715"
     inkscape:window-x="1920"
     inkscape:window-y="312"
     inkscape:window-maximized="1" />
  <metadata
     id="metadata5">
    <rdf:RDF>
      <cc:Work
         rdf:about="">
        <dc:format>image/svg+xml</dc:format>
        <dc:type
           rdf:resource="http://purl.org/dc/dcmitype/StillImage" />
        <dc:title></dc:title>
      </cc:Work>
    </rdf:RDF>
  </metadata>
  <g
     inkscape:label="Calque 1"
     inkscape:groupmode="layer"
     id="layer1"
     transform="translate(0,-257.3125)">
    <g
       id="g4946"
       transform="translate(-0.79375003,-2.1415995e-6)">
      <g
         style="fill:#2c3e50;fill-opacity:1"
         transform="matrix(0.06366504,0,0,0.06366504,1.9543853,257.43676)"
         id="g4855">
        <g
           style="fill:#2c3e50;fill-opacity:1"
           id="g4799">
          <path
             style="fill:#2c3e50;fill-opacity:1"
             inkscape:connector-curvature="0"
             d="M 160,256 H 96 v -64 h 64 z m 128,-64 h -64 v 64 h 64 z m 128,0 h -64 v 64 h 64 z M 160,288 H 96 v 64 h 64 z m 128,0 h -64 v 64 h 64 z m 128,0 h -64 v 64 h 64 z M 160,384 H 96 v 64 h 64 z m 128,0 h -64 v 64 h 64 z M 128,96 c 17.672,0 32,-14.313 32,-32 V 32 C 160,14.312 145.672,0 128,0 110.328,0 96,14.313 96,32 v 32 c 0,17.688 14.328,32 32,32 z M 512,64 V 512 H 0 V 64 h 80 c 0,26.469 21.531,48 48,48 26.469,0 48,-21.531 48,-48 h 160 c 0,26.469 21.531,48 48,48 26.469,0 48,-21.531 48,-48 z m -32,96 H 32 V 480 H 480 Z M 384,96 c 17.688,0 32,-14.313 32,-32 V 32 C 416,14.312 401.688,0 384,0 366.312,0 352,14.313 352,32 v 32 c 0,17.688 14.312,32 32,32 z"
             id="path4797" />
        </g>
        <g
           style="fill:#2c3e50;fill-opacity:1"
           id="g4801" />
        <g
           style="fill:#2c3e50;fill-opacity:1"
           id="g4803" />
        <g
           style="fill:#2c3e50;fill-opacity:1"
           id="g4805" />
        <g
           style="fill:#2c3e50;fill-opacity:1"
           id="g4807" />
        <g
           style="fill:#2c3e50;fill-opacity:1"
           id="g4809" />
        <g
           style="fill:#2c3e50;fill-opacity:1"
           id="g4811" />
        <g
           style="fill:#2c3e50;fill-opacity:1"
           id="g4813" />
        <g
           style="fill:#2c3e50;fill-opacity:1"
           id="g4815" />
        <g
           style="fill:#2c3e50;fill-opacity:1"
           id="g4817" />
        <g
           style="fill:#2c3e50;fill-opacity:1"
           id="g4819" />
        <g
           style="fill:#2c3e50;fill-opacity:1"
           id="g4821" />
        <g
           style="fill:#2c3e50;fill-opacity:1"
           id="g4823" />
        <g
           style="fill:#2c3e50;fill-opacity:1"
           id="g4825" />
        <g
           style="fill:#2c3e50;fill-opacity:1"
           id="g4827" />
        <g
           style="fill:#2c3e50;fill-opacity:1"
           id="g4829" />
      </g>
      <ellipse
         ry="7.2664781"
         rx="7.5610743"
         cy="288.85458"
         cx="31.004858"
         id="path4857"
         style="fill:#ffffff;fill-opacity:1;stroke:#2c3e50;stroke-width:1.50936496;stroke-linecap:round;stroke-linejoin:round;stroke-miterlimit:4;stroke-dasharray:none;stroke-dashoffset:0;stroke-opacity:1" />
      <path
         inkscape:connector-curvature="0"
         id="path4667"
         d="m 31.004858,285.82773 v 6.05372"
         style="fill:none;fill-rule:evenodd;stroke:#f39c12;stroke-width:1.87165165;stroke-linecap:round;stroke-linejoin:miter;stroke-miterlimit:4;stroke-dasharray:none;stroke-opacity:1" />
      <path
         style="fill:none;fill-rule:evenodd;stroke:#f39c12;stroke-width:1.87165165;stroke-linecap:round;stroke-linejoin:miter;stroke-miterlimit:4;stroke-dasharray:none;stroke-opacity:1"
         d="m 27.978001,288.8546 h 6.053714"
         id="path4671"
         inkscape:connector-curvature="0" />
    </g>
  </g>
</svg>
